<mxfile host="app.diagrams.net" agent="Mozilla/5.0 (Macintosh; Intel Mac OS X 10_15_7) AppleWebKit/537.36 (KHTML, like Gecko) Chrome/131.0.0.0 Safari/537.36" version="24.8.9">
  <diagram name="Page-1" id="EfwDvr-h0QJoYLf9BSMS">
    <mxGraphModel dx="1038" dy="1858" grid="1" gridSize="10" guides="1" tooltips="1" connect="1" arrows="1" fold="1" page="1" pageScale="1" pageWidth="850" pageHeight="1100" math="0" shadow="0">
      <root>
        <mxCell id="0" />
        <mxCell id="1" parent="0" />
        <mxCell id="bO1hcC3LqvMLxOzVDt7A-2" value="" style="rounded=0;whiteSpace=wrap;html=1;" parent="1" vertex="1">
          <mxGeometry x="200.25" y="260" width="430" height="230" as="geometry" />
        </mxCell>
        <mxCell id="bO1hcC3LqvMLxOzVDt7A-52" value="" style="endArrow=none;html=1;rounded=0;exitX=0.5;exitY=0;exitDx=0;exitDy=0;entryX=0.5;entryY=1;entryDx=0;entryDy=0;" parent="1" source="bO1hcC3LqvMLxOzVDt7A-34" edge="1" target="bO1hcC3LqvMLxOzVDt7A-44">
          <mxGeometry width="50" height="50" relative="1" as="geometry">
            <mxPoint x="460.25" y="410" as="sourcePoint" />
            <mxPoint x="510.25" y="360" as="targetPoint" />
            <Array as="points">
              <mxPoint x="420.25" y="470" />
              <mxPoint x="510.25" y="470" />
              <mxPoint x="509" y="355" />
              <mxPoint x="415" y="355" />
            </Array>
          </mxGeometry>
        </mxCell>
        <mxCell id="bO1hcC3LqvMLxOzVDt7A-1" value="" style="rounded=0;whiteSpace=wrap;html=1;" parent="1" vertex="1">
          <mxGeometry x="200" y="-30" width="430" height="270" as="geometry" />
        </mxCell>
        <mxCell id="bO1hcC3LqvMLxOzVDt7A-3" value="&lt;b&gt;&lt;u&gt;State&lt;/u&gt;&lt;/b&gt;&lt;div&gt;&lt;b&gt;&lt;u&gt;Manager&lt;/u&gt;&lt;/b&gt;&lt;/div&gt;" style="rounded=0;whiteSpace=wrap;html=1;" parent="1" vertex="1">
          <mxGeometry x="261.25" y="139.63" width="120" height="60" as="geometry" />
        </mxCell>
        <mxCell id="bO1hcC3LqvMLxOzVDt7A-4" value="effect" style="shape=process;whiteSpace=wrap;html=1;backgroundOutline=1;" parent="1" vertex="1">
          <mxGeometry x="240.25" y="360" width="60" height="20" as="geometry" />
        </mxCell>
        <mxCell id="bO1hcC3LqvMLxOzVDt7A-5" value="effect" style="shape=process;whiteSpace=wrap;html=1;backgroundOutline=1;" parent="1" vertex="1">
          <mxGeometry x="240.25" y="400" width="60" height="20" as="geometry" />
        </mxCell>
        <mxCell id="bO1hcC3LqvMLxOzVDt7A-6" value="effect" style="shape=process;whiteSpace=wrap;html=1;backgroundOutline=1;" parent="1" vertex="1">
          <mxGeometry x="240.25" y="440" width="60" height="20" as="geometry" />
        </mxCell>
        <mxCell id="bO1hcC3LqvMLxOzVDt7A-7" value="effect" style="shape=process;whiteSpace=wrap;html=1;backgroundOutline=1;" parent="1" vertex="1">
          <mxGeometry x="320.25" y="360" width="60" height="20" as="geometry" />
        </mxCell>
        <mxCell id="bO1hcC3LqvMLxOzVDt7A-8" value="effect" style="shape=process;whiteSpace=wrap;html=1;backgroundOutline=1;" parent="1" vertex="1">
          <mxGeometry x="402.25" y="400" width="60" height="20" as="geometry" />
        </mxCell>
        <mxCell id="bO1hcC3LqvMLxOzVDt7A-9" value="effect" style="shape=process;whiteSpace=wrap;html=1;backgroundOutline=1;" parent="1" vertex="1">
          <mxGeometry x="320.25" y="400" width="60" height="20" as="geometry" />
        </mxCell>
        <mxCell id="bO1hcC3LqvMLxOzVDt7A-10" value="" style="endArrow=none;html=1;rounded=0;entryX=0;entryY=0.5;entryDx=0;entryDy=0;shape=link;" parent="1" target="bO1hcC3LqvMLxOzVDt7A-4" edge="1">
          <mxGeometry width="50" height="50" relative="1" as="geometry">
            <mxPoint x="200.25" y="370" as="sourcePoint" />
            <mxPoint x="250.25" y="320" as="targetPoint" />
          </mxGeometry>
        </mxCell>
        <mxCell id="bO1hcC3LqvMLxOzVDt7A-11" value="" style="endArrow=none;html=1;rounded=0;entryX=0;entryY=0.5;entryDx=0;entryDy=0;shape=link;" parent="1" target="bO1hcC3LqvMLxOzVDt7A-7" edge="1">
          <mxGeometry width="50" height="50" relative="1" as="geometry">
            <mxPoint x="300.25" y="370" as="sourcePoint" />
            <mxPoint x="350.25" y="320" as="targetPoint" />
          </mxGeometry>
        </mxCell>
        <mxCell id="bO1hcC3LqvMLxOzVDt7A-13" value="" style="endArrow=none;html=1;rounded=0;entryX=0;entryY=0.5;entryDx=0;entryDy=0;shape=link;" parent="1" target="bO1hcC3LqvMLxOzVDt7A-5" edge="1">
          <mxGeometry width="50" height="50" relative="1" as="geometry">
            <mxPoint x="200.25" y="410" as="sourcePoint" />
            <mxPoint x="250.25" y="360" as="targetPoint" />
          </mxGeometry>
        </mxCell>
        <mxCell id="bO1hcC3LqvMLxOzVDt7A-14" value="" style="endArrow=none;html=1;rounded=0;entryX=0;entryY=0.5;entryDx=0;entryDy=0;shape=link;" parent="1" source="bO1hcC3LqvMLxOzVDt7A-22" target="bO1hcC3LqvMLxOzVDt7A-6" edge="1">
          <mxGeometry width="50" height="50" relative="1" as="geometry">
            <mxPoint x="200.25" y="450" as="sourcePoint" />
            <mxPoint x="250.25" y="400" as="targetPoint" />
          </mxGeometry>
        </mxCell>
        <mxCell id="bO1hcC3LqvMLxOzVDt7A-15" value="" style="endArrow=none;html=1;rounded=0;entryX=0;entryY=0.5;entryDx=0;entryDy=0;shape=link;" parent="1" target="bO1hcC3LqvMLxOzVDt7A-9" edge="1">
          <mxGeometry width="50" height="50" relative="1" as="geometry">
            <mxPoint x="300.25" y="410" as="sourcePoint" />
            <mxPoint x="350.25" y="360" as="targetPoint" />
          </mxGeometry>
        </mxCell>
        <mxCell id="bO1hcC3LqvMLxOzVDt7A-16" value="" style="endArrow=none;html=1;rounded=0;entryX=0;entryY=0.5;entryDx=0;entryDy=0;shape=link;" parent="1" target="bO1hcC3LqvMLxOzVDt7A-8" edge="1">
          <mxGeometry width="50" height="50" relative="1" as="geometry">
            <mxPoint x="380.25" y="410" as="sourcePoint" />
            <mxPoint x="430.25" y="360" as="targetPoint" />
          </mxGeometry>
        </mxCell>
        <mxCell id="bO1hcC3LqvMLxOzVDt7A-17" value="" style="endArrow=none;html=1;rounded=0;entryX=0;entryY=0.5;entryDx=0;entryDy=0;exitX=1;exitY=0.5;exitDx=0;exitDy=0;shape=link;" parent="1" source="bO1hcC3LqvMLxOzVDt7A-8" target="bO1hcC3LqvMLxOzVDt7A-28" edge="1">
          <mxGeometry width="50" height="50" relative="1" as="geometry">
            <mxPoint x="460.25" y="410" as="sourcePoint" />
            <mxPoint x="510.25" y="360" as="targetPoint" />
          </mxGeometry>
        </mxCell>
        <mxCell id="bO1hcC3LqvMLxOzVDt7A-21" value="" style="rounded=0;whiteSpace=wrap;html=1;" parent="1" vertex="1">
          <mxGeometry x="190.25" y="360" width="20" height="20" as="geometry" />
        </mxCell>
        <mxCell id="bO1hcC3LqvMLxOzVDt7A-23" value="" style="rounded=0;whiteSpace=wrap;html=1;" parent="1" vertex="1">
          <mxGeometry x="190.25" y="400" width="20" height="20" as="geometry" />
        </mxCell>
        <mxCell id="bO1hcC3LqvMLxOzVDt7A-24" value="" style="endArrow=none;html=1;rounded=0;entryX=0;entryY=0.5;entryDx=0;entryDy=0;" parent="1" target="bO1hcC3LqvMLxOzVDt7A-22" edge="1">
          <mxGeometry width="50" height="50" relative="1" as="geometry">
            <mxPoint x="200.25" y="450" as="sourcePoint" />
            <mxPoint x="240.25" y="450" as="targetPoint" />
          </mxGeometry>
        </mxCell>
        <mxCell id="bO1hcC3LqvMLxOzVDt7A-22" value="" style="rounded=0;whiteSpace=wrap;html=1;" parent="1" vertex="1">
          <mxGeometry x="190.25" y="440" width="20" height="20" as="geometry" />
        </mxCell>
        <mxCell id="bO1hcC3LqvMLxOzVDt7A-25" value="" style="rounded=0;whiteSpace=wrap;html=1;" parent="1" vertex="1">
          <mxGeometry x="619.75" y="360" width="20" height="20" as="geometry" />
        </mxCell>
        <mxCell id="bO1hcC3LqvMLxOzVDt7A-28" value="" style="rounded=0;whiteSpace=wrap;html=1;" parent="1" vertex="1">
          <mxGeometry x="619.75" y="400" width="20" height="20" as="geometry" />
        </mxCell>
        <mxCell id="bO1hcC3LqvMLxOzVDt7A-30" value="" style="rounded=0;whiteSpace=wrap;html=1;" parent="1" vertex="1">
          <mxGeometry x="619.75" y="440" width="20" height="20" as="geometry" />
        </mxCell>
        <mxCell id="bO1hcC3LqvMLxOzVDt7A-31" value="" style="endArrow=none;html=1;rounded=0;entryX=0;entryY=0.5;entryDx=0;entryDy=0;exitX=1;exitY=0.5;exitDx=0;exitDy=0;shape=link;" parent="1" source="bO1hcC3LqvMLxOzVDt7A-7" target="bO1hcC3LqvMLxOzVDt7A-25" edge="1">
          <mxGeometry width="50" height="50" relative="1" as="geometry">
            <mxPoint x="425.25" y="369.7" as="sourcePoint" />
            <mxPoint x="603.25" y="369.7" as="targetPoint" />
          </mxGeometry>
        </mxCell>
        <mxCell id="bO1hcC3LqvMLxOzVDt7A-32" value="" style="shape=flexArrow;endArrow=classic;html=1;rounded=0;endWidth=36.78004535147392;endSize=9.347619047619046;width=64.76190476190476;" parent="1" edge="1">
          <mxGeometry width="50" height="50" relative="1" as="geometry">
            <mxPoint x="130.25" y="410" as="sourcePoint" />
            <mxPoint x="180.25" y="409.76" as="targetPoint" />
          </mxGeometry>
        </mxCell>
        <mxCell id="bO1hcC3LqvMLxOzVDt7A-35" value="Audio&lt;br&gt;in" style="edgeLabel;html=1;align=center;verticalAlign=middle;resizable=0;points=[];" parent="bO1hcC3LqvMLxOzVDt7A-32" vertex="1" connectable="0">
          <mxGeometry x="0.0242" y="7" relative="1" as="geometry">
            <mxPoint x="-6" y="7" as="offset" />
          </mxGeometry>
        </mxCell>
        <mxCell id="bO1hcC3LqvMLxOzVDt7A-33" value="" style="shape=flexArrow;endArrow=classic;html=1;rounded=0;endWidth=36.78004535147392;endSize=9.347619047619046;width=64.76190476190476;" parent="1" edge="1">
          <mxGeometry width="50" height="50" relative="1" as="geometry">
            <mxPoint x="649.75" y="409.84" as="sourcePoint" />
            <mxPoint x="699.75" y="409.59999999999997" as="targetPoint" />
          </mxGeometry>
        </mxCell>
        <mxCell id="bO1hcC3LqvMLxOzVDt7A-36" value="Audio&lt;div&gt;out&lt;/div&gt;" style="edgeLabel;html=1;align=center;verticalAlign=middle;resizable=0;points=[];" parent="bO1hcC3LqvMLxOzVDt7A-33" vertex="1" connectable="0">
          <mxGeometry x="-0.4891" y="12" relative="1" as="geometry">
            <mxPoint x="7" y="12" as="offset" />
          </mxGeometry>
        </mxCell>
        <mxCell id="bO1hcC3LqvMLxOzVDt7A-34" value="USB" style="rounded=0;whiteSpace=wrap;html=1;" parent="1" vertex="1">
          <mxGeometry x="390.25" y="480" width="60" height="20" as="geometry" />
        </mxCell>
        <mxCell id="bO1hcC3LqvMLxOzVDt7A-39" value="&lt;b&gt;&lt;u&gt;Audio&lt;/u&gt;&lt;/b&gt;&lt;div&gt;&lt;b&gt;&lt;u&gt;Manager&lt;/u&gt;&lt;/b&gt;&lt;/div&gt;" style="rounded=0;whiteSpace=wrap;html=1;" parent="1" vertex="1">
          <mxGeometry x="450.25" y="138.13" width="120" height="60" as="geometry" />
        </mxCell>
        <mxCell id="bO1hcC3LqvMLxOzVDt7A-40" value="WiFi" style="rounded=0;whiteSpace=wrap;html=1;" parent="1" vertex="1">
          <mxGeometry x="180" y="65" width="40" height="60" as="geometry" />
        </mxCell>
        <mxCell id="bO1hcC3LqvMLxOzVDt7A-41" value="&lt;b&gt;&lt;u&gt;Mobile&lt;br&gt;Interface&lt;/u&gt;&lt;/b&gt;" style="rounded=0;whiteSpace=wrap;html=1;" parent="1" vertex="1">
          <mxGeometry x="60" y="65" width="120" height="60" as="geometry" />
        </mxCell>
        <mxCell id="bO1hcC3LqvMLxOzVDt7A-42" value="&lt;b&gt;&lt;u&gt;Onboard&lt;br&gt;Interface&lt;/u&gt;&lt;/b&gt;" style="rounded=0;whiteSpace=wrap;html=1;" parent="1" vertex="1">
          <mxGeometry x="260.25" y="-1.870000000000001" width="120" height="60" as="geometry" />
        </mxCell>
        <mxCell id="bO1hcC3LqvMLxOzVDt7A-44" value="&lt;b&gt;&lt;u&gt;DSP&lt;br&gt;Manager&lt;/u&gt;&lt;/b&gt;" style="rounded=0;whiteSpace=wrap;html=1;" parent="1" vertex="1">
          <mxGeometry x="355" y="285" width="120" height="60" as="geometry" />
        </mxCell>
        <mxCell id="bO1hcC3LqvMLxOzVDt7A-49" value="I&lt;sup&gt;2&lt;/sup&gt;C" style="rounded=0;whiteSpace=wrap;html=1;" parent="1" vertex="1">
          <mxGeometry x="300" y="229" width="40" height="40" as="geometry" />
        </mxCell>
        <mxCell id="bO1hcC3LqvMLxOzVDt7A-55" value="" style="endArrow=none;dashed=1;html=1;rounded=0;exitX=0.5;exitY=0;exitDx=0;exitDy=0;entryX=1;entryY=0.5;entryDx=0;entryDy=0;" parent="1" source="bO1hcC3LqvMLxOzVDt7A-49" target="bO1hcC3LqvMLxOzVDt7A-63" edge="1">
          <mxGeometry width="50" height="50" relative="1" as="geometry">
            <mxPoint x="270" y="270" as="sourcePoint" />
            <mxPoint x="320" y="220" as="targetPoint" />
          </mxGeometry>
        </mxCell>
        <mxCell id="bO1hcC3LqvMLxOzVDt7A-56" value="" style="endArrow=none;dashed=1;html=1;rounded=0;exitX=0;exitY=0.5;exitDx=0;exitDy=0;entryX=0.5;entryY=1;entryDx=0;entryDy=0;" parent="1" source="bO1hcC3LqvMLxOzVDt7A-61" edge="1" target="bO1hcC3LqvMLxOzVDt7A-49">
          <mxGeometry width="50" height="50" relative="1" as="geometry">
            <mxPoint x="270.25" y="350" as="sourcePoint" />
            <mxPoint x="320.25" y="300" as="targetPoint" />
            <Array as="points">
              <mxPoint x="320" y="314" />
            </Array>
          </mxGeometry>
        </mxCell>
        <mxCell id="bO1hcC3LqvMLxOzVDt7A-57" value="" style="endArrow=none;html=1;rounded=0;exitX=1;exitY=0.5;exitDx=0;exitDy=0;entryX=0.5;entryY=1;entryDx=0;entryDy=0;" parent="1" source="bO1hcC3LqvMLxOzVDt7A-77" edge="1" target="fSW4WdPmNb8MHkj_S0-a-1">
          <mxGeometry width="50" height="50" relative="1" as="geometry">
            <mxPoint x="480" y="287.5" as="sourcePoint" />
            <mxPoint x="370" y="272.5" as="targetPoint" />
            <Array as="points">
              <mxPoint x="510" y="314" />
            </Array>
          </mxGeometry>
        </mxCell>
        <mxCell id="bO1hcC3LqvMLxOzVDt7A-61" value="" style="triangle;whiteSpace=wrap;html=1;rotation=0;" parent="1" vertex="1">
          <mxGeometry x="344" y="307.75" width="10" height="12.5" as="geometry" />
        </mxCell>
        <mxCell id="bO1hcC3LqvMLxOzVDt7A-63" value="" style="triangle;whiteSpace=wrap;html=1;rotation=90;" parent="1" vertex="1">
          <mxGeometry x="315.63" y="197.25" width="9.25" height="12.5" as="geometry" />
        </mxCell>
        <mxCell id="bO1hcC3LqvMLxOzVDt7A-64" value="" style="triangle;whiteSpace=wrap;html=1;rotation=-90;" parent="1" vertex="1">
          <mxGeometry x="505.37" y="197.5" width="9.75" height="12.5" as="geometry" />
        </mxCell>
        <mxCell id="bO1hcC3LqvMLxOzVDt7A-65" value="" style="endArrow=none;html=1;rounded=0;entryX=0;entryY=0.5;entryDx=0;entryDy=0;exitX=0.5;exitY=0;exitDx=0;exitDy=0;" parent="1" source="fSW4WdPmNb8MHkj_S0-a-1" target="bO1hcC3LqvMLxOzVDt7A-64" edge="1">
          <mxGeometry width="50" height="50" relative="1" as="geometry">
            <mxPoint x="390" y="230" as="sourcePoint" />
            <mxPoint x="440" y="180" as="targetPoint" />
            <Array as="points">
              <mxPoint x="510" y="220" />
            </Array>
          </mxGeometry>
        </mxCell>
        <mxCell id="bO1hcC3LqvMLxOzVDt7A-67" value="" style="triangle;whiteSpace=wrap;html=1;rotation=-90;" parent="1" vertex="1">
          <mxGeometry x="307.75" y="57.379999999999995" width="9.5" height="12.5" as="geometry" />
        </mxCell>
        <mxCell id="bO1hcC3LqvMLxOzVDt7A-71" value="" style="triangle;whiteSpace=wrap;html=1;rotation=90;" parent="1" vertex="1">
          <mxGeometry x="288.75" y="57.379999999999995" width="9.5" height="12.5" as="geometry" />
        </mxCell>
        <mxCell id="bO1hcC3LqvMLxOzVDt7A-72" value="" style="triangle;whiteSpace=wrap;html=1;rotation=-90;" parent="1" vertex="1">
          <mxGeometry x="343.25" y="57.379999999999995" width="9.5" height="12.5" as="geometry" />
        </mxCell>
        <mxCell id="bO1hcC3LqvMLxOzVDt7A-73" value="&lt;b&gt;&lt;u&gt;Auto-Mixing&lt;/u&gt;&lt;/b&gt;&lt;div&gt;&lt;b&gt;&lt;u&gt;Model&lt;/u&gt;&lt;/b&gt;&lt;/div&gt;" style="rounded=0;whiteSpace=wrap;html=1;" parent="1" vertex="1">
          <mxGeometry x="450.24" y="-1.870000000000001" width="120" height="60" as="geometry" />
        </mxCell>
        <mxCell id="bO1hcC3LqvMLxOzVDt7A-74" value="" style="triangle;whiteSpace=wrap;html=1;rotation=-90;" parent="1" vertex="1">
          <mxGeometry x="530.24" y="57.379999999999995" width="9.5" height="12.5" as="geometry" />
        </mxCell>
        <mxCell id="bO1hcC3LqvMLxOzVDt7A-75" value="" style="triangle;whiteSpace=wrap;html=1;rotation=90;" parent="1" vertex="1">
          <mxGeometry x="480.24" y="57.379999999999995" width="9.5" height="12.5" as="geometry" />
        </mxCell>
        <mxCell id="bO1hcC3LqvMLxOzVDt7A-77" value="" style="triangle;whiteSpace=wrap;html=1;rotation=0;" parent="1" vertex="1">
          <mxGeometry x="475.25" y="307.75" width="10" height="12.5" as="geometry" />
        </mxCell>
        <mxCell id="bO1hcC3LqvMLxOzVDt7A-81" value="" style="triangle;whiteSpace=wrap;html=1;rotation=0;" parent="1" vertex="1">
          <mxGeometry x="220" y="107" width="10" height="12.5" as="geometry" />
        </mxCell>
        <mxCell id="bO1hcC3LqvMLxOzVDt7A-82" value="" style="triangle;whiteSpace=wrap;html=1;rotation=-180;" parent="1" vertex="1">
          <mxGeometry x="221.25" y="76.75" width="10" height="12.5" as="geometry" />
        </mxCell>
        <mxCell id="bO1hcC3LqvMLxOzVDt7A-83" value="" style="triangle;whiteSpace=wrap;html=1;rotation=-180;" parent="1" vertex="1">
          <mxGeometry x="221.25" y="92.5" width="10" height="12.5" as="geometry" />
        </mxCell>
        <mxCell id="bO1hcC3LqvMLxOzVDt7A-84" value="" style="endArrow=none;dashed=1;html=1;rounded=0;" parent="1" edge="1">
          <mxGeometry width="50" height="50" relative="1" as="geometry">
            <mxPoint x="244.25" y="106.13" as="sourcePoint" />
            <mxPoint x="483.25" y="106.13" as="targetPoint" />
          </mxGeometry>
        </mxCell>
        <mxCell id="bO1hcC3LqvMLxOzVDt7A-85" value="" style="triangle;whiteSpace=wrap;html=1;rotation=-90;" parent="1" vertex="1">
          <mxGeometry x="334.5" y="127.13" width="9.5" height="12.5" as="geometry" />
        </mxCell>
        <mxCell id="bO1hcC3LqvMLxOzVDt7A-86" value="" style="triangle;whiteSpace=wrap;html=1;rotation=90;" parent="1" vertex="1">
          <mxGeometry x="298.25" y="127.13" width="9.5" height="12.5" as="geometry" />
        </mxCell>
        <mxCell id="bO1hcC3LqvMLxOzVDt7A-87" value="" style="triangle;whiteSpace=wrap;html=1;rotation=-90;" parent="1" vertex="1">
          <mxGeometry x="505.62" y="127.13" width="9.5" height="12.5" as="geometry" />
        </mxCell>
        <mxCell id="bO1hcC3LqvMLxOzVDt7A-88" value="" style="endArrow=none;html=1;rounded=0;exitX=0;exitY=0.5;exitDx=0;exitDy=0;entryX=0;entryY=0.5;entryDx=0;entryDy=0;" parent="1" source="bO1hcC3LqvMLxOzVDt7A-82" target="bO1hcC3LqvMLxOzVDt7A-74" edge="1">
          <mxGeometry width="50" height="50" relative="1" as="geometry">
            <mxPoint x="240.25" y="88.13" as="sourcePoint" />
            <mxPoint x="290.25" y="38.129999999999995" as="targetPoint" />
            <Array as="points">
              <mxPoint x="535.25" y="82.13" />
            </Array>
          </mxGeometry>
        </mxCell>
        <mxCell id="bO1hcC3LqvMLxOzVDt7A-90" value="" style="endArrow=none;html=1;rounded=0;exitX=1;exitY=0.5;exitDx=0;exitDy=0;" parent="1" source="bO1hcC3LqvMLxOzVDt7A-87" edge="1">
          <mxGeometry width="50" height="50" relative="1" as="geometry">
            <mxPoint x="550.25" y="118.13" as="sourcePoint" />
            <mxPoint x="510.25" y="82.13" as="targetPoint" />
          </mxGeometry>
        </mxCell>
        <mxCell id="bO1hcC3LqvMLxOzVDt7A-91" value="" style="endArrow=none;html=1;rounded=0;entryX=0;entryY=0.5;entryDx=0;entryDy=0;" parent="1" target="bO1hcC3LqvMLxOzVDt7A-72" edge="1">
          <mxGeometry width="50" height="50" relative="1" as="geometry">
            <mxPoint x="348.25" y="82.13" as="sourcePoint" />
            <mxPoint x="350.25" y="68.13" as="targetPoint" />
          </mxGeometry>
        </mxCell>
        <mxCell id="bO1hcC3LqvMLxOzVDt7A-92" value="" style="endArrow=none;dashed=1;html=1;rounded=0;entryX=1;entryY=0.5;entryDx=0;entryDy=0;" parent="1" target="bO1hcC3LqvMLxOzVDt7A-75" edge="1">
          <mxGeometry width="50" height="50" relative="1" as="geometry">
            <mxPoint x="485.25" y="106.13" as="sourcePoint" />
            <mxPoint x="490.25" y="68.13" as="targetPoint" />
          </mxGeometry>
        </mxCell>
        <mxCell id="bO1hcC3LqvMLxOzVDt7A-94" value="" style="endArrow=none;dashed=1;html=1;rounded=0;exitX=0;exitY=0.5;exitDx=0;exitDy=0;" parent="1" source="bO1hcC3LqvMLxOzVDt7A-86" edge="1">
          <mxGeometry width="50" height="50" relative="1" as="geometry">
            <mxPoint x="260.25" y="158.13" as="sourcePoint" />
            <mxPoint x="303.25" y="106.13" as="targetPoint" />
          </mxGeometry>
        </mxCell>
        <mxCell id="bO1hcC3LqvMLxOzVDt7A-95" value="" style="endArrow=none;dashed=1;html=1;rounded=0;exitX=1;exitY=0.5;exitDx=0;exitDy=0;" parent="1" source="bO1hcC3LqvMLxOzVDt7A-85" edge="1">
          <mxGeometry width="50" height="50" relative="1" as="geometry">
            <mxPoint x="360.25" y="128.13" as="sourcePoint" />
            <mxPoint x="339.25" y="107.13" as="targetPoint" />
          </mxGeometry>
        </mxCell>
        <mxCell id="bO1hcC3LqvMLxOzVDt7A-96" value="" style="endArrow=none;dashed=1;html=1;rounded=0;exitX=0;exitY=0.5;exitDx=0;exitDy=0;" parent="1" source="bO1hcC3LqvMLxOzVDt7A-83" edge="1">
          <mxGeometry width="50" height="50" relative="1" as="geometry">
            <mxPoint x="250.25" y="128.13" as="sourcePoint" />
            <mxPoint x="244.25" y="98.13" as="targetPoint" />
          </mxGeometry>
        </mxCell>
        <mxCell id="bO1hcC3LqvMLxOzVDt7A-97" value="" style="endArrow=none;dashed=1;html=1;rounded=0;exitX=1;exitY=0.5;exitDx=0;exitDy=0;" parent="1" source="bO1hcC3LqvMLxOzVDt7A-81" edge="1">
          <mxGeometry width="50" height="50" relative="1" as="geometry">
            <mxPoint x="230.25" y="92.19999999999987" as="sourcePoint" />
            <mxPoint x="243.25" y="113.13" as="targetPoint" />
          </mxGeometry>
        </mxCell>
        <mxCell id="bO1hcC3LqvMLxOzVDt7A-98" value="" style="endArrow=none;dashed=1;html=1;rounded=0;" parent="1" edge="1">
          <mxGeometry width="50" height="50" relative="1" as="geometry">
            <mxPoint x="244.25" y="98.13" as="sourcePoint" />
            <mxPoint x="244.25" y="113.13" as="targetPoint" />
          </mxGeometry>
        </mxCell>
        <mxCell id="bO1hcC3LqvMLxOzVDt7A-99" value="" style="endArrow=none;dashed=1;html=1;rounded=0;" parent="1" edge="1">
          <mxGeometry width="50" height="50" relative="1" as="geometry">
            <mxPoint x="293.25" y="105.13" as="sourcePoint" />
            <mxPoint x="293.25" y="69.13" as="targetPoint" />
          </mxGeometry>
        </mxCell>
        <mxCell id="bO1hcC3LqvMLxOzVDt7A-100" value="" style="endArrow=none;dashed=1;html=1;rounded=0;entryX=0;entryY=0.5;entryDx=0;entryDy=0;" parent="1" target="bO1hcC3LqvMLxOzVDt7A-67" edge="1">
          <mxGeometry width="50" height="50" relative="1" as="geometry">
            <mxPoint x="312.25" y="106.13" as="sourcePoint" />
            <mxPoint x="350.25" y="88.13" as="targetPoint" />
          </mxGeometry>
        </mxCell>
        <mxCell id="bO1hcC3LqvMLxOzVDt7A-101" value="" style="rounded=0;whiteSpace=wrap;html=1;" parent="1" vertex="1">
          <mxGeometry x="650" y="-30" width="150" height="240" as="geometry" />
        </mxCell>
        <mxCell id="bO1hcC3LqvMLxOzVDt7A-104" value="&lt;b&gt;Raspberry Pi 5&lt;/b&gt;" style="text;html=1;align=center;verticalAlign=middle;whiteSpace=wrap;rounded=0;" parent="1" vertex="1">
          <mxGeometry x="180" y="-31.869999999999997" width="144" height="30" as="geometry" />
        </mxCell>
        <mxCell id="bO1hcC3LqvMLxOzVDt7A-105" value="&lt;b&gt;XMOS XCore&lt;/b&gt;" style="text;html=1;align=center;verticalAlign=middle;whiteSpace=wrap;rounded=0;" parent="1" vertex="1">
          <mxGeometry x="181.13" y="269" width="141.75" height="30" as="geometry" />
        </mxCell>
        <mxCell id="bO1hcC3LqvMLxOzVDt7A-106" value="&lt;h1 style=&quot;margin-top: 0px;&quot;&gt;Legend&lt;/h1&gt;" style="text;html=1;whiteSpace=wrap;overflow=hidden;rounded=0;" parent="1" vertex="1">
          <mxGeometry x="660" y="-29.5" width="180" height="120" as="geometry" />
        </mxCell>
        <mxCell id="bO1hcC3LqvMLxOzVDt7A-107" value="" style="endArrow=none;dashed=1;html=1;rounded=0;" parent="1" edge="1">
          <mxGeometry width="50" height="50" relative="1" as="geometry">
            <mxPoint x="666" y="31" as="sourcePoint" />
            <mxPoint x="701" y="31" as="targetPoint" />
          </mxGeometry>
        </mxCell>
        <mxCell id="bO1hcC3LqvMLxOzVDt7A-108" value="State data&lt;br&gt;connection" style="text;strokeColor=none;fillColor=none;align=left;verticalAlign=middle;spacingLeft=4;spacingRight=4;overflow=hidden;points=[[0,0.5],[1,0.5]];portConstraint=eastwest;rotatable=0;whiteSpace=wrap;html=1;" parent="1" vertex="1">
          <mxGeometry x="710" y="15" width="80" height="30" as="geometry" />
        </mxCell>
        <mxCell id="bO1hcC3LqvMLxOzVDt7A-109" value="" style="endArrow=none;html=1;rounded=0;" parent="1" edge="1">
          <mxGeometry width="50" height="50" relative="1" as="geometry">
            <mxPoint x="667" y="76" as="sourcePoint" />
            <mxPoint x="700" y="76" as="targetPoint" />
          </mxGeometry>
        </mxCell>
        <mxCell id="bO1hcC3LqvMLxOzVDt7A-110" value="Audio data&lt;br&gt;connection" style="text;strokeColor=none;fillColor=none;align=left;verticalAlign=middle;spacingLeft=4;spacingRight=4;overflow=hidden;points=[[0,0.5],[1,0.5]];portConstraint=eastwest;rotatable=0;whiteSpace=wrap;html=1;" parent="1" vertex="1">
          <mxGeometry x="710" y="60" width="80" height="30" as="geometry" />
        </mxCell>
        <mxCell id="bO1hcC3LqvMLxOzVDt7A-113" value="&lt;b&gt;&lt;u&gt;System&lt;/u&gt;&lt;/b&gt;&lt;div&gt;&lt;b&gt;&lt;u&gt;module&lt;/u&gt;&lt;/b&gt;&lt;/div&gt;" style="rounded=0;whiteSpace=wrap;html=1;" parent="1" vertex="1">
          <mxGeometry x="665" y="105" width="120" height="45" as="geometry" />
        </mxCell>
        <mxCell id="bO1hcC3LqvMLxOzVDt7A-115" value="" style="triangle;whiteSpace=wrap;html=1;rotation=-90;" parent="1" vertex="1">
          <mxGeometry x="670" y="172" width="9.5" height="12.5" as="geometry" />
        </mxCell>
        <mxCell id="bO1hcC3LqvMLxOzVDt7A-116" value="" style="triangle;whiteSpace=wrap;html=1;rotation=91;" parent="1" vertex="1">
          <mxGeometry x="687" y="172" width="9.5" height="12.5" as="geometry" />
        </mxCell>
        <mxCell id="bO1hcC3LqvMLxOzVDt7A-118" value="Module input/output" style="text;strokeColor=none;fillColor=none;align=left;verticalAlign=middle;spacingLeft=4;spacingRight=4;overflow=hidden;points=[[0,0.5],[1,0.5]];portConstraint=eastwest;rotatable=0;whiteSpace=wrap;html=1;" parent="1" vertex="1">
          <mxGeometry x="710" y="156.5" width="80" height="43.5" as="geometry" />
        </mxCell>
        <mxCell id="bO1hcC3LqvMLxOzVDt7A-119" value="" style="ellipse;whiteSpace=wrap;html=1;aspect=fixed;strokeColor=#FF0000;fillColor=#FF0808;" parent="1" vertex="1">
          <mxGeometry x="66" y="71" width="20" height="20" as="geometry" />
        </mxCell>
        <mxCell id="bO1hcC3LqvMLxOzVDt7A-120" value="" style="ellipse;whiteSpace=wrap;html=1;aspect=fixed;strokeColor=#FF0000;fillColor=#FF0808;" parent="1" vertex="1">
          <mxGeometry x="266.25" y="4.129999999999999" width="20" height="20" as="geometry" />
        </mxCell>
        <mxCell id="bO1hcC3LqvMLxOzVDt7A-122" value="" style="ellipse;whiteSpace=wrap;html=1;aspect=fixed;strokeColor=#FF0000;fillColor=#FF0808;" parent="1" vertex="1">
          <mxGeometry x="266.25" y="145.13" width="20" height="20" as="geometry" />
        </mxCell>
        <mxCell id="bO1hcC3LqvMLxOzVDt7A-123" value="" style="ellipse;whiteSpace=wrap;html=1;aspect=fixed;strokeColor=#050DFF;fillColor=#0B03FF;" parent="1" vertex="1">
          <mxGeometry x="455.25" y="142.13" width="20" height="20" as="geometry" />
        </mxCell>
        <mxCell id="bO1hcC3LqvMLxOzVDt7A-124" value="" style="ellipse;whiteSpace=wrap;html=1;aspect=fixed;strokeColor=#09FF00;fillColor=#00FF1A;" parent="1" vertex="1">
          <mxGeometry x="455.25" y="3.129999999999999" width="20" height="20" as="geometry" />
        </mxCell>
        <mxCell id="bO1hcC3LqvMLxOzVDt7A-125" value="" style="ellipse;whiteSpace=wrap;html=1;aspect=fixed;strokeColor=#F7FF00;fillColor=#E6FF03;" parent="1" vertex="1">
          <mxGeometry x="450.24" y="304" width="20" height="20" as="geometry" />
        </mxCell>
        <mxCell id="2rKTPZ6Cr9pdh6A0BGRH-1" value="" style="rounded=0;whiteSpace=wrap;html=1;" parent="1" vertex="1">
          <mxGeometry x="28.63" y="150" width="149.37" height="160" as="geometry" />
        </mxCell>
        <mxCell id="2rKTPZ6Cr9pdh6A0BGRH-2" value="&lt;h1 style=&quot;margin-top: 0px;&quot;&gt;&lt;font style=&quot;font-size: 14px;&quot;&gt;Work Distribution&lt;br&gt;&lt;/font&gt;&lt;br&gt;&lt;/h1&gt;" style="text;html=1;whiteSpace=wrap;overflow=hidden;rounded=0;" parent="1" vertex="1">
          <mxGeometry x="39.99999999999999" y="143.25" width="150" height="70" as="geometry" />
        </mxCell>
        <mxCell id="2rKTPZ6Cr9pdh6A0BGRH-3" value="" style="ellipse;whiteSpace=wrap;html=1;aspect=fixed;fillColor=#EEFF03;" parent="1" vertex="1">
          <mxGeometry x="56.26" y="190.5" width="18" height="18" as="geometry" />
        </mxCell>
        <mxCell id="2rKTPZ6Cr9pdh6A0BGRH-4" value="" style="ellipse;whiteSpace=wrap;html=1;aspect=fixed;fillColor=#0000FF;" parent="1" vertex="1">
          <mxGeometry x="56.26" y="220" width="18" height="18" as="geometry" />
        </mxCell>
        <mxCell id="2rKTPZ6Cr9pdh6A0BGRH-5" value="" style="ellipse;whiteSpace=wrap;html=1;aspect=fixed;fillColor=#FF0800;" parent="1" vertex="1">
          <mxGeometry x="56.26" y="250" width="18" height="18" as="geometry" />
        </mxCell>
        <mxCell id="2rKTPZ6Cr9pdh6A0BGRH-6" value="Josh" style="text;strokeColor=none;fillColor=none;align=left;verticalAlign=middle;spacingLeft=4;spacingRight=4;overflow=hidden;points=[[0,0.5],[1,0.5]];portConstraint=eastwest;rotatable=0;whiteSpace=wrap;html=1;" parent="1" vertex="1">
          <mxGeometry x="84.25999999999999" y="184.5" width="80" height="30" as="geometry" />
        </mxCell>
        <mxCell id="2rKTPZ6Cr9pdh6A0BGRH-7" value="Sri" style="text;strokeColor=none;fillColor=none;align=left;verticalAlign=middle;spacingLeft=4;spacingRight=4;overflow=hidden;points=[[0,0.5],[1,0.5]];portConstraint=eastwest;rotatable=0;whiteSpace=wrap;html=1;" parent="1" vertex="1">
          <mxGeometry x="84.25999999999999" y="214.5" width="80" height="30" as="geometry" />
        </mxCell>
        <mxCell id="2rKTPZ6Cr9pdh6A0BGRH-8" value="Juni" style="text;strokeColor=none;fillColor=none;align=left;verticalAlign=middle;spacingLeft=4;spacingRight=4;overflow=hidden;points=[[0,0.5],[1,0.5]];portConstraint=eastwest;rotatable=0;whiteSpace=wrap;html=1;" parent="1" vertex="1">
          <mxGeometry x="84.25999999999999" y="244.5" width="80" height="30" as="geometry" />
        </mxCell>
        <mxCell id="2rKTPZ6Cr9pdh6A0BGRH-9" value="" style="ellipse;whiteSpace=wrap;html=1;aspect=fixed;fillColor=#32FF24;" parent="1" vertex="1">
          <mxGeometry x="56.26" y="278.5" width="18" height="18" as="geometry" />
        </mxCell>
        <mxCell id="2rKTPZ6Cr9pdh6A0BGRH-10" value="Kevin" style="text;strokeColor=none;fillColor=none;align=left;verticalAlign=middle;spacingLeft=4;spacingRight=4;overflow=hidden;points=[[0,0.5],[1,0.5]];portConstraint=eastwest;rotatable=0;whiteSpace=wrap;html=1;" parent="1" vertex="1">
          <mxGeometry x="84.25999999999999" y="272.5" width="80" height="30" as="geometry" />
        </mxCell>
        <mxCell id="fSW4WdPmNb8MHkj_S0-a-1" value="SPI" style="rounded=0;whiteSpace=wrap;html=1;" parent="1" vertex="1">
          <mxGeometry x="489.99" y="229" width="40" height="40" as="geometry" />
        </mxCell>
        <mxCell id="bO1hcC3LqvMLxOzVDt7A-18" value="" style="endArrow=none;html=1;rounded=0;entryX=0;entryY=0.5;entryDx=0;entryDy=0;exitX=1;exitY=0.5;exitDx=0;exitDy=0;shape=link;" parent="1" source="bO1hcC3LqvMLxOzVDt7A-6" target="bO1hcC3LqvMLxOzVDt7A-30" edge="1">
          <mxGeometry width="50" height="50" relative="1" as="geometry">
            <mxPoint x="530.25" y="460" as="sourcePoint" />
            <mxPoint x="580.25" y="410" as="targetPoint" />
          </mxGeometry>
        </mxCell>
      </root>
    </mxGraphModel>
  </diagram>
</mxfile>
